<svg xmlns="http://www.w3.org/2000/svg" viewBox="0 0 64 64">
  <defs>
    <linearGradient id="wing" x1="0" y1="0" x2="1" y2="1">
      <stop offset="0%" stop-color="#84ecff" />
      <stop offset="55%" stop-color="#3ba7ff" />
      <stop offset="100%" stop-color="#0b68ff" />
    </linearGradient>
    <linearGradient id="body" x1="0" y1="0" x2="0" y2="1">
      <stop offset="0%" stop-color="#eff9ff" />
      <stop offset="100%" stop-color="#b9dfff" />
    </linearGradient>
  </defs>
  <rect width="64" height="64" rx="18" fill="#04111f" />
  <g transform="translate(32 31)">
    <path
      d="M-5 -3c-9-15-23-14-24-2-1 7 4 13 12 13 6 0 10-4 12-11Z"
      fill="url(#wing)"
      opacity="0.98"
    />
    <path
      d="M5 -3c9-15 23-14 24-2 1 7-4 13-12 13-6 0-10-4-12-11Z"
      fill="url(#wing)"
      opacity="0.98"
    />
    <path
      d="M-4 2c-7 3-12 10-9 16 2 4 7 6 12 4 4-2 5-8 3-20Z"
      fill="url(#wing)"
    />
    <path
      d="M4 2c7 3 12 10 9 16-2 4-7 6-12 4-4-2-5-8-3-20Z"
      fill="url(#wing)"
    />
    <rect x="-2.2" y="-10" width="4.4" height="27" rx="2.2" fill="url(#body)" />
    <path d="M-1 -12c-4-5-7-7-10-8" fill="none" stroke="#bde7ff" stroke-linecap="round" stroke-width="2" />
    <path d="M1 -12c4-5 7-7 10-8" fill="none" stroke="#bde7ff" stroke-linecap="round" stroke-width="2" />
  </g>
</svg>
